<?xml version="1.0" standalone="no"?><!DOCTYPE svg PUBLIC "-//W3C//DTD SVG 1.1//EN" "http://www.w3.org/Graphics/SVG/1.1/DTD/svg11.dtd"><svg t="1535521453179" class="icon" style="" viewBox="0 0 1024 1024" version="1.1" xmlns="http://www.w3.org/2000/svg" p-id="700" xmlns:xlink="http://www.w3.org/1999/xlink" width="30" height="30"><defs><style type="text/css"></style></defs><path d="M793.2928 828.0576c-5.504-85.0176-46.0544-164.1216-111.2576-217.0368l-3.8912-2.7904-0.0512 0.0768a22.7328 22.7328 0 0 0-12.288-3.6352c-14.9248 0-23.8592 7.4752-23.8592 19.968 0 7.296 3.2512 14.1312 8.704 18.7648l-0.0512 0.128 3.456 2.56c54.6816 40.4992 85.4528 101.9136 91.4944 182.6048l0.0512 0.896a26.368 26.368 0 0 0-0.0768 2.048c0 13.6192 10.6496 24.6784 23.8336 24.6784 12.6976 0 23.0912-10.3168 23.7824-23.3216H793.6l-0.3072-4.9408zM716.544 414.5664c0-122.7264-97.5104-222.5664-217.344-222.5664-119.8848 0-217.3952 99.84-217.3952 222.5664a223.5392 223.5392 0 0 0 77.696 170.3168c-88.8064 49.1008-147.7376 142.7712-154.368 246.1696l-0.2816 4.3008-0.0256 0.2816-0.0256 0.4096v0.6144c0 11.5712 9.0624 20.9408 20.1984 20.9408s20.1984-9.3696 20.1984-20.9152l-0.0256-0.6144h0.4352l0.3328-4.3008c7.3216-98.2784 67.4304-184.32 153.3184-219.776 25.6512 12.3136 64.7936 25.1904 99.8912 25.1904 32.5376 0 64.1792-7.424 94.2592-22.2464l22.0416-13.2864 17.9968-12.2368a223.4112 223.4112 0 0 0 83.0976-174.848zM499.2 592.384c-95.7952 0-173.696-79.7696-173.696-177.8176 0-97.9968 77.9008-177.7408 173.696-177.7408s173.696 79.744 173.696 177.7408c0 98.0224-77.9008 177.8176-173.696 177.8176z" fill="#eeeeee" p-id="701"></path></svg>